<?xml version="1.0" standalone="no"?>
<!DOCTYPE svg PUBLIC "-//W3C//DTD SVG 20010904//EN"
 "http://www.w3.org/TR/2001/REC-SVG-20010904/DTD/svg10.dtd">
<svg version="1.0" xmlns="http://www.w3.org/2000/svg"
 width="1536.000000pt" height="1536.000000pt" viewBox="0 0 1536.000000 1536.000000"
 preserveAspectRatio="xMidYMid meet">
<metadata>
Created by potrace 1.16, written by Peter Selinger 2001-2019
</metadata>
<g transform="translate(0.000000,1536.000000) scale(0.100000,-0.100000)"
fill="#000000" stroke="none">
<path d="M9075 10616 c-122 -34 -191 -73 -271 -151 -203 -199 -207 -464 -10
-661 80 -79 142 -114 260 -144 96 -24 152 -25 254 -4 202 42 362 176 422 355
18 53 21 81 18 160 -3 87 -7 103 -42 173 -68 139 -180 226 -346 271 -115 30
-180 31 -285 1z"/>
<path d="M8669 9480 c-141 -13 -279 -82 -377 -189 -83 -91 -140 -197 -226
-421 -31 -80 -61 -154 -66 -165 -5 -11 -40 -99 -79 -195 -38 -96 -101 -254
-141 -350 -40 -96 -106 -256 -147 -355 -41 -99 -88 -215 -105 -257 -27 -67
-35 -79 -62 -87 -17 -5 -102 -32 -189 -60 -86 -28 -164 -51 -173 -51 -8 0
-112 96 -230 213 -124 122 -230 219 -252 229 -33 16 -83 18 -496 18 l-458 0
-197 103 c-108 57 -236 124 -285 149 l-89 45 -89 234 c-196 518 -188 502 -277
534 -57 20 -107 19 -156 -4 -67 -31 -105 -86 -105 -151 0 -17 67 -204 149
-417 130 -337 154 -392 183 -416 32 -28 112 -71 514 -282 l202 -105 6 -143 c3
-78 10 -342 16 -587 6 -245 13 -503 17 -574 l6 -129 -34 5 c-19 3 -117 29
-219 57 -157 44 -195 52 -252 49 -55 -3 -75 -9 -109 -33 -58 -41 -80 -75 -86
-128 -7 -61 1 -90 39 -132 38 -44 73 -63 163 -87 39 -11 93 -26 120 -33 28 -8
84 -23 125 -35 41 -12 100 -28 130 -36 30 -8 78 -21 105 -29 225 -61 243 -64
301 -49 68 17 82 25 116 61 48 50 50 69 47 348 l-4 260 39 3 c21 2 42 0 46 -5
4 -4 13 -273 20 -598 13 -649 13 -649 76 -704 33 -30 116 -61 160 -61 34 0
113 29 146 53 16 12 39 37 50 56 21 33 21 37 15 585 -4 303 -12 814 -18 1136
-6 322 -9 598 -7 613 3 26 4 25 68 -34 36 -34 119 -114 185 -178 145 -142 184
-166 269 -158 34 2 95 16 136 30 254 87 497 158 564 167 89 11 165 47 201 95
13 16 44 80 68 140 25 61 76 184 114 275 38 91 127 305 198 475 71 171 130
312 132 314 20 26 -16 -166 -91 -484 -13 -54 -31 -131 -71 -310 -8 -33 -26
-109 -39 -170 -14 -60 -42 -184 -62 -275 -20 -91 -45 -201 -56 -245 -30 -130
-31 -137 -9 -172 38 -61 61 -68 199 -66 l125 2 -7 -807 -8 -807 29 -55 c109
-212 457 -195 555 27 18 41 20 89 29 791 6 411 12 771 15 800 l6 53 61 -3 62
-3 0 -85 c0 -47 -2 -229 -5 -405 l-4 -320 27 -52 c29 -57 69 -92 140 -123 78
-35 148 -29 487 40 168 34 368 75 445 90 257 51 293 66 365 147 44 50 60 94
60 163 -1 127 -132 240 -279 240 -28 0 -140 -18 -248 -41 -286 -58 -372 -73
-379 -66 -4 4 -3 100 2 214 l9 208 120 5 c134 6 174 20 200 70 21 41 19 72
-21 280 -19 102 -41 223 -49 269 -8 46 -17 91 -20 101 -8 24 -177 930 -188
1005 -6 39 -6 39 8 14 8 -15 71 -166 140 -335 69 -170 164 -401 210 -514 46
-113 107 -262 136 -332 77 -189 129 -233 274 -233 69 1 87 4 133 30 88 48 140
134 129 214 -4 34 -44 139 -152 401 -159 387 -391 975 -455 1155 -113 316
-207 450 -375 532 -105 51 -132 53 -665 51 -272 0 -534 -4 -581 -8z"/>
<path d="M5900 8723 c-49 -8 -134 -44 -186 -79 -67 -44 -116 -101 -152 -174
-24 -49 -27 -66 -27 -155 0 -88 3 -107 27 -158 39 -83 79 -130 156 -180 94
-62 179 -87 294 -87 126 0 217 29 312 99 62 46 98 91 134 169 23 48 27 71 27
148 0 84 -2 95 -38 166 -60 122 -167 206 -312 243 -55 14 -176 18 -235 8z"/>
<path d="M3997 4833 c-4 -3 -7 -215 -7 -470 l0 -463 263 0 c6175 0 7822 1
7829 8 5 5 7 215 6 468 l-3 459 -4041 3 c-2222 1 -4044 -1 -4047 -5z m346
-144 c47 -13 102 -60 115 -99 12 -34 7 -40 -60 -65 l-48 -18 -29 32 c-31 33
-70 41 -91 17 -24 -30 -7 -60 60 -104 98 -64 128 -90 161 -134 25 -35 29 -50
29 -104 0 -53 -4 -67 -26 -94 -46 -54 -98 -75 -189 -75 -69 0 -86 4 -127 27
-43 26 -88 80 -88 107 0 7 28 25 63 40 l62 28 31 -33 c36 -39 63 -43 89 -14
32 35 10 64 -100 138 -63 43 -107 80 -119 102 -27 45 -27 124 -1 168 45 75
162 111 268 81z m367 -319 l0 -330 -70 0 -70 0 0 330 0 330 70 0 70 0 0 -330z
m300 273 c12 -32 39 -110 61 -173 39 -114 55 -149 62 -140 2 3 23 59 46 125
24 66 53 147 65 180 l22 60 77 3 77 3 0 -331 0 -330 -80 0 -80 0 0 107 c0 126
-7 123 -55 -19 l-30 -88 -46 0 -47 0 -22 63 c-12 34 -29 81 -38 105 -8 23 -19
45 -23 48 -5 3 -9 -45 -9 -105 l0 -111 -75 0 -75 0 0 330 0 330 74 0 75 0 21
-57z m710 0 c12 -32 42 -114 66 -182 43 -122 50 -138 58 -130 2 2 32 85 67
184 l65 180 77 3 77 3 0 -331 0 -330 -80 0 -80 0 0 108 c0 122 -4 121 -52 -15
l-32 -93 -47 0 -47 0 -38 109 c-21 61 -41 108 -46 105 -4 -3 -8 -52 -8 -110
l0 -104 -75 0 -75 0 0 330 0 330 74 0 75 0 21 -57z m670 -273 l0 -330 -75 0
-75 0 0 330 0 330 75 0 75 0 0 -330z m760 260 l0 -69 -127 -3 -128 -3 -3 -52
-3 -53 95 0 96 0 0 -75 0 -74 -92 -3 -93 -3 -3 -127 -3 -128 -74 0 -75 0 0
330 0 330 205 0 205 0 0 -70z m411 60 c47 -13 115 -72 141 -124 17 -33 22 -64
26 -156 8 -200 -27 -287 -137 -342 -124 -63 -277 -10 -332 114 -20 47 -23 69
-23 193 -1 134 0 142 26 192 57 108 177 157 299 123z m409 -182 c0 -211 8
-264 41 -290 32 -27 81 -23 110 8 24 25 24 28 27 250 l3 224 75 0 74 0 0 -215
c0 -243 -8 -298 -54 -358 -46 -61 -94 -82 -186 -82 -89 0 -138 21 -183 77 -46
58 -57 125 -57 366 l0 212 75 0 75 0 0 -192z m596 169 c18 -38 136 -251 150
-272 12 -17 14 1 14 138 l0 157 80 0 80 0 0 -330 0 -331 -77 3 -78 3 -80 147
c-44 80 -83 150 -87 154 -5 4 -8 -63 -8 -149 l0 -157 -80 0 -80 0 0 330 0 330
78 0 c70 0 78 -2 88 -23z m711 -5 c57 -30 107 -82 134 -139 20 -41 23 -65 23
-163 1 -100 -2 -122 -23 -167 -31 -69 -95 -127 -162 -147 -32 -10 -91 -16
-151 -16 l-98 0 0 331 0 331 118 -4 c95 -4 125 -9 159 -26z m627 11 c2 -10 19
-65 36 -123 17 -58 40 -134 50 -170 11 -36 34 -117 53 -180 19 -63 37 -128 41
-143 l7 -28 -83 3 -83 3 -28 80 c-15 43 -33 83 -40 87 -16 10 -99 10 -115 0
-7 -5 -25 -44 -40 -88 l-28 -79 -78 -3 -79 -3 7 43 c4 24 13 63 20 88 8 25 23
77 35 115 11 39 33 115 49 170 17 55 40 133 51 173 l22 72 99 0 c85 0 99 -2
104 -17z m716 -53 l0 -69 -72 -3 -73 -3 -3 -257 -2 -258 -75 0 -75 0 -2 258
-3 257 -72 3 -73 3 0 69 0 70 225 0 225 0 0 -70z m220 -260 l0 -330 -70 0 -70
0 0 330 0 330 70 0 70 0 0 -330z m465 311 c59 -27 100 -65 126 -118 22 -44 24
-61 23 -188 0 -119 -3 -147 -21 -186 -74 -164 -293 -199 -410 -66 -49 56 -58
95 -58 257 0 131 2 149 22 186 26 50 95 111 138 123 52 16 137 12 180 -8z
m406 -8 c63 -125 153 -281 160 -277 5 3 9 72 9 155 l0 149 75 0 75 0 0 -330 0
-331 -76 3 -76 3 -74 135 c-41 74 -78 143 -81 153 -15 48 -23 2 -23 -138 l0
-155 -80 0 -80 0 0 330 0 330 79 0 c76 0 79 -1 92 -27z"/>
<path d="M10364 3662 c-6 -4 -14 -17 -18 -29 -6 -19 -10 -21 -26 -10 -16 9
-23 9 -36 -5 -9 -9 -14 -24 -11 -32 8 -20 46 -21 53 -1 4 8 11 12 16 9 6 -4 9
-55 7 -133 -4 -124 -4 -126 18 -129 33 -5 38 24 35 221 -2 117 -7 130 -38 109z"/>
<path d="M11286 3615 c-3 -9 -6 -68 -6 -130 0 -89 3 -117 15 -129 9 -8 22 -13
30 -10 12 5 15 31 17 125 1 65 2 127 2 137 1 23 -49 30 -58 7z"/>
<path d="M9145 3612 c-6 -4 -15 -20 -20 -37 -7 -21 -26 -38 -63 -58 -53 -29
-67 -52 -60 -97 4 -28 45 -60 81 -64 15 -1 33 -8 39 -14 7 -7 19 -12 28 -12
13 0 16 17 17 108 1 59 3 122 5 141 3 34 -8 47 -27 33z"/>
<path d="M11674 3583 c-11 -28 -28 -45 -65 -66 -58 -32 -78 -65 -61 -101 13
-30 54 -58 88 -62 14 -1 31 -8 39 -14 30 -25 36 -5 40 115 1 66 4 129 6 140 3
12 -2 21 -14 23 -13 3 -22 -7 -33 -35z"/>
<path d="M8300 3556 l-9 -24 -38 19 c-42 22 -85 19 -115 -8 -39 -35 -13 -82
62 -113 32 -13 38 -28 18 -48 -16 -16 -38 -15 -59 4 -19 17 -39 12 -39 -11 0
-45 87 -61 133 -25 l26 20 6 -55 c6 -41 13 -58 27 -66 31 -17 42 2 28 47 -7
22 -10 52 -8 68 3 26 10 32 53 45 88 28 99 105 18 131 -21 7 -42 19 -46 26
-13 23 -47 16 -57 -10z"/>
<path d="M9523 3561 c-64 -40 -52 -126 17 -126 41 0 47 -13 49 -92 1 -61 -12
-73 -44 -43 -23 22 -55 22 -55 1 0 -17 40 -49 68 -54 15 -3 37 1 50 9 21 14
22 22 24 144 1 72 2 140 2 153 1 19 -5 22 -39 25 -26 2 -51 -4 -72 -17z"/>
<path d="M8474 3556 c-3 -8 -1 -31 5 -53 6 -21 11 -66 11 -101 0 -49 4 -64 16
-69 33 -13 49 11 46 68 -3 52 -1 56 37 94 23 21 41 44 41 51 0 23 -34 25 -62
4 -27 -20 -27 -20 -38 0 -12 23 -48 27 -56 6z"/>
<path d="M8863 3558 c-13 -6 -23 -20 -23 -30 0 -18 5 -19 50 -13 42 6 50 4 50
-9 0 -12 -10 -16 -34 -16 -41 0 -82 -32 -92 -72 -8 -35 32 -78 72 -78 15 0 35
-7 45 -16 16 -14 18 -14 27 3 11 21 32 137 32 176 0 56 -67 84 -127 55z"/>
<path d="M9779 3542 c-28 -25 -32 -33 -23 -52 6 -13 32 -35 59 -49 58 -31 66
-47 31 -62 -22 -10 -29 -9 -46 6 -19 17 -22 17 -36 3 -15 -14 -14 -18 6 -38
19 -19 30 -21 68 -17 30 3 52 12 63 25 16 20 16 20 32 1 23 -26 42 -15 68 39
l23 47 6 -45 c4 -37 9 -46 27 -48 18 -3 28 8 53 57 17 34 33 61 36 61 4 0 5
-37 3 -82 -4 -77 -3 -83 16 -83 33 0 45 41 43 140 -3 86 -4 90 -27 93 -13 2
-36 -6 -52 -17 l-28 -21 -13 27 c-20 42 -44 41 -70 -4 -20 -33 -23 -35 -26
-16 -5 33 -26 47 -52 33 -17 -9 -25 -8 -40 5 -9 9 -33 18 -52 22 -29 4 -41 0
-69 -25z"/>
<path d="M10653 3550 c-41 -25 -44 -60 -7 -89 15 -12 32 -21 38 -21 6 0 22 -7
34 -16 22 -15 22 -17 6 -35 -21 -23 -37 -24 -54 -4 -16 19 -39 19 -47 0 -10
-27 26 -55 69 -55 30 0 46 7 69 29 16 16 29 39 29 50 0 20 -33 47 -82 69 -29
12 -39 42 -14 42 7 0 29 -7 49 -15 35 -15 47 -12 47 12 0 17 -58 53 -85 53
-11 0 -35 -9 -52 -20z"/>
<path d="M11893 3560 c-14 -6 -23 -18 -23 -31 0 -19 4 -20 50 -14 42 6 50 4
50 -9 0 -12 -10 -16 -36 -16 -41 0 -94 -45 -94 -80 0 -31 44 -70 78 -70 16 0
35 -7 42 -15 8 -10 17 -12 23 -6 9 9 36 148 37 189 0 50 -65 77 -127 52z"/>
<path d="M8677 3540 c-32 -25 -40 -60 -27 -112 21 -76 92 -113 146 -74 25 19
11 31 -34 31 -38 0 -55 20 -25 29 10 3 31 16 47 29 24 19 28 28 22 51 -7 27
-58 66 -87 66 -9 0 -28 -9 -42 -20z"/>
<path d="M10495 3548 c-32 -19 -44 -40 -45 -81 0 -69 46 -127 101 -127 41 0
59 10 59 32 0 16 -6 18 -36 16 -50 -4 -52 14 -5 40 22 12 41 28 44 35 8 25
-15 66 -48 81 -39 19 -44 19 -70 4z"/>
<path d="M9314 3527 c-3 -8 -4 -47 -2 -88 4 -92 21 -98 60 -19 25 51 27 53 27
25 2 -67 13 -105 31 -105 10 0 20 6 23 14 6 15 -7 132 -18 159 -9 21 -38 22
-55 2 -11 -14 -14 -13 -27 5 -16 23 -31 26 -39 7z"/>
<path d="M11007 3533 c-4 -3 -7 -41 -7 -84 0 -57 4 -78 14 -82 18 -7 31 8 51
57 9 21 18 36 20 34 3 -2 8 -29 12 -59 7 -45 12 -54 28 -54 18 0 20 6 18 65
-4 105 -36 150 -74 104 -12 -14 -14 -14 -21 5 -7 21 -28 28 -41 14z"/>
<path d="M11377 3533 c-4 -3 -7 -41 -7 -84 0 -57 4 -78 14 -82 18 -7 30 7 54
63 l19 45 9 -65 c8 -55 12 -65 29 -65 18 0 20 6 17 65 -4 105 -35 149 -73 104
-12 -14 -14 -14 -21 5 -7 21 -28 28 -41 14z"/>
</g>
</svg>
