<?xml version="1.0" standalone="no"?>
<!DOCTYPE svg PUBLIC "-//W3C//DTD SVG 20010904//EN"
 "http://www.w3.org/TR/2001/REC-SVG-20010904/DTD/svg10.dtd">
<svg version="1.0" xmlns="http://www.w3.org/2000/svg"
 width="1235.000000pt" height="694.000000pt" viewBox="0 0 1235.000000 694.000000"
 preserveAspectRatio="xMidYMid meet">
<metadata>
Created by potrace 1.16, written by Peter Selinger 2001-2019
</metadata>
<g transform="translate(0.000000,694.000000) scale(0.100000,-0.100000)"
fill="#000000" stroke="none" >
<path d="M2780 3575 l0 -2925 3600 0 3600 0 0 2925 0 2925 -3600 0 -3600 0 0
-2925z m6740 0 l0 -2465 -3140 0 -3140 0 0 2465 0 2465 3140 0 3140 0 0 -2465z" style="fill:#0a;fill-opacity:0.31674209"/>
<path d="M8277 5590 c-112 -19 -255 -93 -343 -176 -139 -133 -207 -295 -208
-494 0 -152 41 -281 129 -401 88 -119 241 -222 381 -255 90 -21 240 -21 328 0
225 54 408 225 483 451 23 69 27 97 27 205 0 145 -13 201 -77 325 -29 56 -64
102 -118 156 -153 155 -379 226 -602 189z" style="fill:#0a;fill-opacity:0.31674209" />
<path d="M5019 5123 c-57 -150 -1339 -3567 -1339 -3569 0 -2 1215 -4 2700 -4
1485 0 2700 3 2700 6 0 3 -304 459 -676 1015 -449 671 -679 1007 -687 1002 -7
-4 -209 -155 -450 -336 -242 -181 -440 -327 -441 -325 -32 43 -1789 2238
-1792 2238 -2 0 -9 -12 -15 -27z"  style="fill:#0a;fill-opacity:0.31674209"/>
</g>
</svg>
